<svg width="626" height="154" viewBox="0 0 626 154" fill="none" xmlns="http://www.w3.org/2000/svg">
<path d="M22.0703 138C20.2474 138 18.9128 137.577 18.0664 136.73C17.2201 135.884 16.7969 134.582 16.7969 132.824V21.6914C16.7969 19.8685 17.2201 18.5664 18.0664 17.7852C18.9128 16.9388 20.2474 16.5156 22.0703 16.5156H82.6172C83.8542 16.5156 84.7331 16.9062 85.2539 17.6875C85.8398 18.4688 86.1328 19.8034 86.1328 21.6914V24.5234C86.1328 26.2812 85.8398 27.5833 85.2539 28.4297C84.7331 29.276 83.8542 29.6992 82.6172 29.6992H32.1289V69.25H77.4414C78.6784 69.25 79.5573 69.6732 80.0781 70.5195C80.6641 71.3659 80.957 72.7005 80.957 74.5234V77.1602C80.957 78.9831 80.6641 80.3177 80.0781 81.1641C79.5573 81.9453 78.6784 82.3359 77.4414 82.3359H32.1289V124.816H82.8125C84.0495 124.816 84.9284 125.24 85.4492 126.086C86.0352 126.867 86.3281 128.169 86.3281 129.992V132.824C86.3281 134.582 86.0352 135.884 85.4492 136.73C84.9284 137.577 84.0495 138 82.8125 138H22.0703ZM134.082 138.293C129.98 138.293 127.637 137.382 127.051 135.559L99.1211 52.0625C98.7305 50.8906 98.5352 50.1419 98.5352 49.8164C98.5352 48.9049 99.1536 48.1888 100.391 47.668C101.628 47.1471 103.516 46.8867 106.055 46.8867H106.934C110.97 46.8867 113.281 47.7982 113.867 49.6211L131.543 104.992C132.975 109.289 134.635 115.148 136.523 122.57L137.598 126.672H138.379L139.551 121.496C140.983 114.66 142.318 109.289 143.555 105.383L161.426 49.6211C162.012 47.7982 164.388 46.8867 168.555 46.8867H169.043C173.405 46.8867 175.586 47.8633 175.586 49.8164C175.586 50.4674 175.358 51.2487 174.902 52.1602L147.07 135.559C146.484 137.382 144.141 138.293 140.039 138.293H134.082ZM217.285 138.977C208.431 138.977 201.27 136.796 195.801 132.434C190.332 128.072 187.598 121.594 187.598 113C187.598 103.951 190.365 97.1471 195.898 92.5898C201.432 87.9674 208.171 85.0052 216.113 83.7031C224.121 82.3359 233.822 81.5547 245.215 81.3594V73.1562C245.215 68.7943 243.717 65.3112 240.723 62.707C237.793 60.0378 232.943 58.7031 226.172 58.7031C221.029 58.7031 216.504 59.3216 212.598 60.5586C208.757 61.7305 205.143 63.1628 201.758 64.8555C200.326 65.5716 199.447 65.9297 199.121 65.9297C198.34 65.9297 197.461 65.3763 196.484 64.2695C195.573 63.0977 194.759 61.7956 194.043 60.3633C193.392 58.931 193.066 57.8893 193.066 57.2383C193.066 55.7409 194.596 54.1133 197.656 52.3555C200.781 50.5977 204.85 49.1328 209.863 47.9609C214.876 46.7891 220.117 46.2031 225.586 46.2031C236.458 46.2031 244.889 48.5794 250.879 53.332C256.868 58.0846 259.863 64.7578 259.863 73.3516V112.316C259.863 119.868 260.189 125.337 260.84 128.723C261.556 132.043 261.914 133.866 261.914 134.191C261.914 135.624 260.807 136.665 258.594 137.316C256.445 137.902 254.427 138.195 252.539 138.195C250.977 138.195 249.805 137.316 249.023 135.559C248.307 133.801 247.591 131.262 246.875 127.941L246.484 125.988C242.904 129.96 238.672 133.117 233.789 135.461C228.971 137.805 223.47 138.977 217.285 138.977ZM218.066 126.379C223.796 126.379 228.678 125.337 232.715 123.254C236.751 121.171 240.918 118.208 245.215 114.367V93.8594C236.621 93.9245 229.557 94.2826 224.023 94.9336C218.49 95.5846 213.639 97.2448 209.473 99.9141C205.306 102.518 203.223 106.587 203.223 112.121C203.223 116.743 204.46 120.292 206.934 122.766C209.473 125.174 213.184 126.379 218.066 126.379ZM295.801 138.293C293.327 138.293 291.536 138 290.43 137.414C289.323 136.763 288.77 135.786 288.77 134.484V73.5469C288.77 65.9948 288.411 60.5586 287.695 57.2383C286.979 53.8529 286.621 51.9974 286.621 51.6719C286.621 50.2396 287.695 49.2305 289.844 48.6445C292.057 47.9935 294.141 47.668 296.094 47.668C297.721 47.668 298.926 48.5469 299.707 50.3047C300.488 52.0625 301.042 53.8529 301.367 55.6758C301.758 57.4987 302.018 58.6706 302.148 59.1914C305.794 55.0898 309.993 51.8997 314.746 49.6211C319.564 47.3424 324.414 46.2031 329.297 46.2031C338.151 46.2031 345.052 48.7096 350 53.7227C355.013 58.6706 357.52 65.5065 357.52 74.2305V134.484C357.52 135.786 356.966 136.763 355.859 137.414C354.753 138 352.995 138.293 350.586 138.293H349.805C347.461 138.293 345.736 138 344.629 137.414C343.522 136.763 342.969 135.786 342.969 134.484V75.6953C342.969 70.3568 341.406 66.2227 338.281 63.293C335.221 60.2982 330.892 58.8008 325.293 58.8008C321.387 58.8008 317.448 59.9076 313.477 62.1211C309.57 64.2695 306.185 67.2318 303.32 71.0078V134.484C303.32 135.786 302.767 136.763 301.66 137.414C300.553 138 298.828 138.293 296.484 138.293H295.801ZM413.184 138.977C406.413 138.977 400.488 137.023 395.41 133.117C390.332 129.146 386.393 123.645 383.594 116.613C380.859 109.582 379.492 101.607 379.492 92.6875C379.492 82.8568 380.957 74.4583 383.887 67.4922C386.882 60.4609 391.048 55.1549 396.387 51.5742C401.725 47.9935 407.878 46.2031 414.844 46.2031C419.857 46.2031 424.284 46.9518 428.125 48.4492C432.031 49.9466 435.872 52.1276 439.648 54.9922V11.2422C439.648 8.70312 441.927 7.43359 446.484 7.43359H447.266C451.888 7.43359 454.199 8.70312 454.199 11.2422V112.316C454.199 119.868 454.557 125.337 455.273 128.723C455.99 132.043 456.348 133.866 456.348 134.191C456.348 135.624 455.241 136.665 453.027 137.316C450.879 137.902 448.861 138.195 446.973 138.195C445.671 138.195 444.629 137.577 443.848 136.34C443.066 135.103 442.513 133.866 442.188 132.629C441.927 131.327 441.471 129.113 440.82 125.988C432.552 134.647 423.34 138.977 413.184 138.977ZM416.211 126.379C420.052 126.379 424.023 125.337 428.125 123.254C432.292 121.171 436.133 118.208 439.648 114.367V66.8086C433.398 61.6003 426.27 58.9961 418.262 58.9961C410.514 59.1914 404.655 62.0234 400.684 67.4922C396.777 72.9609 394.824 80.9036 394.824 91.3203C394.824 102.518 396.647 111.177 400.293 117.297C404.004 123.352 409.31 126.379 416.211 126.379ZM491.406 138.293C488.932 138.293 487.142 138 486.035 137.414C484.928 136.763 484.375 135.786 484.375 134.484V73.5469C484.375 65.9948 484.017 60.5586 483.301 57.2383C482.585 53.8529 482.227 51.9974 482.227 51.6719C482.227 50.2396 483.301 49.2305 485.449 48.6445C487.663 47.9935 489.746 47.668 491.699 47.668C493.262 47.668 494.434 48.5143 495.215 50.207C495.996 51.8346 496.68 54.1458 497.266 57.1406L497.754 59.1914C503.939 50.5326 510.645 46.2031 517.871 46.2031C521.191 46.2031 523.698 46.8216 525.391 48.0586C527.083 49.2305 527.93 50.8255 527.93 52.8438C527.93 54.7969 527.572 56.8802 526.855 59.0938C526.204 61.2422 525.423 62.3164 524.512 62.3164C524.056 62.3164 523.242 62.1211 522.07 61.7305C521.029 61.2747 519.987 60.9492 518.945 60.7539C517.904 60.4935 516.569 60.3633 514.941 60.3633C512.272 60.3633 509.733 61.1445 507.324 62.707C504.98 64.2695 502.995 65.9948 501.367 67.8828C499.74 69.7708 498.926 70.8125 498.926 71.0078V134.484C498.926 135.786 498.372 136.763 497.266 137.414C496.159 138 494.434 138.293 492.09 138.293H491.406ZM578.418 138.977C571.126 138.977 564.518 136.763 558.594 132.336C552.669 127.909 547.917 121.073 544.336 111.828C540.82 102.583 539.062 91.0273 539.062 77.1602C539.062 63.3581 540.82 51.8346 544.336 42.5898C547.917 33.3451 552.669 26.5091 558.594 22.082C564.518 17.5898 571.126 15.3438 578.418 15.3438C585.71 15.3438 592.35 17.5898 598.34 22.082C604.395 26.5091 609.212 33.3451 612.793 42.5898C616.374 51.8346 618.164 63.3581 618.164 77.1602C618.164 91.0273 616.374 102.583 612.793 111.828C609.212 121.073 604.395 127.909 598.34 132.336C592.35 136.763 585.71 138.977 578.418 138.977ZM578.418 126.477C582.91 126.477 587.012 124.816 590.723 121.496C594.499 118.176 597.559 112.837 599.902 105.48C602.246 98.1237 603.418 88.6836 603.418 77.1602C603.418 65.7018 602.246 56.2943 599.902 48.9375C597.559 41.5807 594.499 36.2422 590.723 32.9219C587.012 29.5365 582.91 27.8438 578.418 27.8438C573.991 27.8438 569.889 29.5039 566.113 32.8242C562.402 36.1445 559.408 41.5156 557.129 48.9375C554.85 56.2943 553.711 65.7018 553.711 77.1602C553.711 88.6836 554.85 98.1237 557.129 105.48C559.408 112.837 562.402 118.176 566.113 121.496C569.889 124.816 573.991 126.477 578.418 126.477Z" fill="black"/>
<path d="M579.191 130.977C571.9 130.977 565.292 128.763 559.367 124.336C553.443 119.909 548.69 113.073 545.109 103.828C541.594 94.5833 539.836 83.0273 539.836 69.1602C539.836 55.3581 541.594 43.8346 545.109 34.5898C548.69 25.3451 553.443 18.5091 559.367 14.082C565.292 9.58984 571.9 7.34375 579.191 7.34375C586.483 7.34375 593.124 9.58984 599.113 14.082C605.168 18.5091 609.986 25.3451 613.566 34.5898C617.147 43.8346 618.938 55.3581 618.938 69.1602C618.938 83.0273 617.147 94.5833 613.566 103.828C609.986 113.073 605.168 119.909 599.113 124.336C593.124 128.763 586.483 130.977 579.191 130.977ZM579.191 118.477C583.684 118.477 587.785 116.816 591.496 113.496C595.272 110.176 598.332 104.837 600.676 97.4805C603.02 90.1237 604.191 80.6836 604.191 69.1602C604.191 57.7018 603.02 48.2943 600.676 40.9375C598.332 33.5807 595.272 28.2422 591.496 24.9219C587.785 21.5365 583.684 19.8438 579.191 19.8438C574.764 19.8438 570.663 21.5039 566.887 24.8242C563.176 28.1445 560.181 33.5156 557.902 40.9375C555.624 48.2943 554.484 57.7018 554.484 69.1602C554.484 80.6836 555.624 90.1237 557.902 97.4805C560.181 104.837 563.176 110.176 566.887 113.496C570.663 116.816 574.764 118.477 579.191 118.477Z" fill="#2D0F38"/>
<rect x="0.5" y="0.5" width="625" height="153" stroke="black"/>
</svg>
